<svg version="1.1" id="Layer_1" xmlns="http://www.w3.org/2000/svg" xmlns:xlink="http://www.w3.org/1999/xlink" x="0px" y="0px"
	 width="100%" viewBox="0 0 1254 1254" enable-background="new 0 0 1254 1254" xml:space="preserve">
<path fill="#FEFEFE" opacity="1.000000" stroke="none" 
	d="
M866.000000,1255.000000 
	C577.333313,1255.000000 289.166656,1255.000000 1.000000,1255.000000 
	C1.000000,837.000000 1.000000,419.000000 1.000000,1.000000 
	C419.000000,1.000000 837.000000,1.000000 1255.000000,1.000000 
	C1255.000000,419.000000 1255.000000,837.000000 1255.000000,1255.000000 
	C1125.500000,1255.000000 996.000000,1255.000000 866.000000,1255.000000 
M978.548950,538.886108 
	C978.497803,536.722900 978.406616,534.559875 978.401550,532.396545 
	C978.283997,482.564911 978.139954,432.733246 978.137329,382.901611 
	C978.137085,379.127045 977.025879,376.487335 974.362244,373.756226 
	C945.507263,344.170380 916.772095,314.467224 888.117188,284.687500 
	C885.738037,282.214935 883.476196,281.045990 879.978210,281.091614 
	C852.984802,281.444061 825.988831,281.630707 798.993225,281.789032 
	C784.384216,281.874725 769.774292,281.804291 754.576538,281.804291 
	C754.576538,205.507370 754.576538,129.424942 754.576538,52.894550 
	C668.946167,53.615791 583.910339,54.332024 499.186340,55.045631 
	C499.186340,131.491760 499.186340,207.262924 499.186340,283.730896 
	C496.652954,283.730896 494.036499,283.724091 491.420105,283.731964 
	C451.754852,283.851471 412.089539,284.042450 372.424500,283.995453 
	C368.055481,283.990265 365.104736,285.353851 362.125214,288.461060 
	C333.521301,318.290588 304.733032,347.943451 276.155548,377.798187 
	C274.450073,379.579926 273.242645,382.654572 273.241272,385.128326 
	C273.222412,419.626190 273.584595,454.124084 273.603149,488.622101 
	C273.689301,648.952576 273.719269,809.283081 273.645294,969.613525 
	C273.642578,975.471069 274.951599,980.294800 278.101257,985.379150 
	C321.253937,1055.037598 364.204102,1124.821899 406.983673,1194.710083 
	C409.604370,1198.991577 412.230316,1200.405518 417.108765,1200.400757 
	C558.272522,1200.260376 699.436462,1200.226074 840.600037,1200.429443 
	C847.099426,1200.438721 850.393555,1198.549194 853.652405,1192.848511 
	C876.216431,1153.378052 899.252869,1114.177490 922.158813,1074.902588 
	C937.768372,1048.138062 953.039368,1021.164978 969.220947,994.750244 
	C975.858337,983.915527 980.840637,973.276733 978.826172,960.316589 
	C978.598694,958.853333 978.819641,957.321594 978.818726,955.821655 
	C978.732422,817.157471 978.644714,678.493347 978.548950,538.886108 
z"/>
<path fill="#010101" opacity="1.000000" stroke="none" 
	d="
M978.553101,539.357666 
	C978.644714,678.493347 978.732422,817.157471 978.818726,955.821655 
	C978.819641,957.321594 978.598694,958.853333 978.826172,960.316589 
	C980.840637,973.276733 975.858337,983.915527 969.220947,994.750244 
	C953.039368,1021.164978 937.768372,1048.138062 922.158813,1074.902588 
	C899.252869,1114.177490 876.216431,1153.378052 853.652405,1192.848511 
	C850.393555,1198.549194 847.099426,1200.438721 840.600037,1200.429443 
	C699.436462,1200.226074 558.272522,1200.260376 417.108765,1200.400757 
	C412.230316,1200.405518 409.604370,1198.991577 406.983673,1194.710083 
	C364.204102,1124.821899 321.253937,1055.037598 278.101257,985.379150 
	C274.951599,980.294800 273.642578,975.471069 273.645294,969.613525 
	C273.719269,809.283081 273.689301,648.952576 273.603149,488.622101 
	C273.584595,454.124084 273.222412,419.626190 273.241272,385.128326 
	C273.242645,382.654572 274.450073,379.579926 276.155548,377.798187 
	C304.733032,347.943451 333.521301,318.290588 362.125214,288.461060 
	C365.104736,285.353851 368.055481,283.990265 372.424500,283.995453 
	C412.089539,284.042450 451.754852,283.851471 491.420105,283.731964 
	C494.036499,283.724091 496.652954,283.730896 499.186340,283.730896 
	C499.186340,207.262924 499.186340,131.491760 499.186340,55.045631 
	C583.910339,54.332024 668.946167,53.615791 754.576538,52.894550 
	C754.576538,129.424942 754.576538,205.507370 754.576538,281.804291 
	C769.774292,281.804291 784.384216,281.874725 798.993225,281.789032 
	C825.988831,281.630707 852.984802,281.444061 879.978210,281.091614 
	C883.476196,281.045990 885.738037,282.214935 888.117188,284.687500 
	C916.772095,314.467224 945.507263,344.170380 974.362244,373.756226 
	C977.025879,376.487335 978.137085,379.127045 978.137329,382.901611 
	C978.139954,432.733246 978.283997,482.564911 978.401550,532.396545 
	C978.406616,534.559875 978.497803,536.722900 978.553101,539.357666 
z"/>
</svg>